<mxfile host="app.diagrams.net" modified="2024-03-07T14:49:20.525Z" agent="Mozilla/5.0 (Macintosh; Intel Mac OS X 10_15_7) AppleWebKit/537.36 (KHTML, like Gecko) Chrome/121.0.0.0 Safari/537.36" version="24.0.2" etag="QdtpJUCUb1inO32gzQkJ" type="github">
  <diagram name="Page-1" id="XwaTnK1nkIp45fPvhrtq">
    <mxGraphModel>
      <root>
        <mxCell id="0" />
        <mxCell id="1" parent="0" />
      </root>
    </mxGraphModel>
  </diagram>
</mxfile>
